HIERARCHY
ROOT root
{
	OFFSET	0	13.1	24.9
	CHANNELS 6  Xposition Yposition Zposition Xrotation Yrotation Zrotation
	JOINT spine_1
	{
		OFFSET	0	9.99999	0
		CHANNELS 3  Xrotation Yrotation Zrotation
		JOINT spine_2
		{
			OFFSET	0	112	-10
			CHANNELS 3  Xrotation Yrotation Zrotation
			JOINT spine_3
			{
				OFFSET	0	206.5	19.3
				CHANNELS 3  Xrotation Yrotation Zrotation
				JOINT spine_4
				{
					OFFSET	0	110.4	14.6
					CHANNELS 3  Xrotation Yrotation Zrotation
					JOINT neck_1
					{
						OFFSET	0	71.8	-50.3
						CHANNELS 3  Xrotation Yrotation Zrotation
						JOINT neck_2
						{
							OFFSET	0	86.2	-25.8
							CHANNELS 3  Xrotation Yrotation Zrotation
							JOINT head_ee
							{
								OFFSET	0	179.8	-8.7
								CHANNELS 3  Xrotation Yrotation Zrotation
								End Site
								{
									OFFSET	1	0	0
								}
							}
						}
					}
					JOINT left_clavicle
					{
						OFFSET	-43.2	22.4	-70.8
						CHANNELS 3  Xrotation Yrotation Zrotation
						JOINT left_shoulder
						{
							OFFSET	-93.9	-5.79999	48.7
							CHANNELS 3  Xrotation Yrotation Zrotation
							JOINT left_elbow
							{
								OFFSET	-291.4	-30.8	15.2
								CHANNELS 3  Xrotation Yrotation Zrotation
								JOINT left_lowarm_twist
								{
									OFFSET	-110.7	-3.89999	13.6
									CHANNELS 3  Xrotation Yrotation Zrotation
									JOINT left_hand
									{
										OFFSET	-110.7	-3.89999	13.6
										CHANNELS 3  Xrotation Yrotation Zrotation
										JOINT left_ee
										{
											OFFSET	-80.8	-5.10001	12.1
											CHANNELS 3  Xrotation Yrotation Zrotation
											End Site
											{
												OFFSET	1	0	0
											}
										}
									}
								}
							}
						}
					}
					JOINT right_clavicle
					{
						OFFSET	43.2	22.4	-70.8
						CHANNELS 3  Xrotation Yrotation Zrotation
						JOINT right_shoulder
						{
							OFFSET	93.9	-5.79999	48.7
							CHANNELS 3  Xrotation Yrotation Zrotation
							JOINT right_elbow
							{
								OFFSET	291.4	-30.8	15.2
								CHANNELS 3  Xrotation Yrotation Zrotation
								JOINT right_lowarm_twist
								{
									OFFSET	110.7	-3.89999	13.6
									CHANNELS 3  Xrotation Yrotation Zrotation
									JOINT right_hand
									{
										OFFSET	110.7	-3.89999	13.6
										CHANNELS 3  Xrotation Yrotation Zrotation
										JOINT right_ee
										{
											OFFSET	80.8	-5.10001	12.1
											CHANNELS 3  Xrotation Yrotation Zrotation
											End Site
											{
												OFFSET	1	0	0
											}
										}
									}
								}
							}
						}
					}
				}
			}
		}
	}
	JOINT left_hip
	{
		OFFSET	-82.8	-127.5	0.300001
		CHANNELS 3  Xrotation Yrotation Zrotation
		JOINT left_knee
		{
			OFFSET	-28.2	-396.7	2.2
			CHANNELS 3  Xrotation Yrotation Zrotation
			JOINT left_ankle
			{
				OFFSET	-11.7	-411.3	35.4
				CHANNELS 3  Xrotation Yrotation Zrotation
				JOINT left_toes
				{
					OFFSET	0	-60	-88.6
					CHANNELS 3  Xrotation Yrotation Zrotation
					JOINT left_foot_ee
					{
						OFFSET	-22.5	-16.5	-42.2
						CHANNELS 3  Xrotation Yrotation Zrotation
						End Site
						{
							OFFSET	1	0	0
						}
					}
				}
			}
		}
	}
	JOINT right_hip
	{
		OFFSET	82.8	-127.5	0.300001
		CHANNELS 3  Xrotation Yrotation Zrotation
		JOINT right_knee
		{
			OFFSET	28.2	-396.7	2.2
			CHANNELS 3  Xrotation Yrotation Zrotation
			JOINT right_ankle
			{
				OFFSET	11.7	-411.3	35.4
				CHANNELS 3  Xrotation Yrotation Zrotation
				JOINT right_toes
				{
					OFFSET	0	-60	-88.6
					CHANNELS 3  Xrotation Yrotation Zrotation
					JOINT right_foot_ee
					{
						OFFSET	22.5	-16.5	-42.2
						CHANNELS 3  Xrotation Yrotation Zrotation
						End Site
						{
							OFFSET	1	0	0
						}
					}
				}
			}
		}
	}
}
MOTION
Frames: 8
Frame Time: 0.02
2826.92 668.116 -429.48 -170.971 -60.638 -174.189 2.81009 0.0671622 0.323034 2.81015 0.0464707 0.326652 2.8104 -0.00705651 0.329866 2.81025 0.0451279 0.326841 0.415157 0.43862 0.683734 0.416365 0.21611 0.783229 -0.0 0.0 -0.0 6.37437 -7.24818 12.1833 3.19836 -8.67807 59.6026 2.63561 -52.5414 1.3011 49.4498 -0.929703 -6.05473 0.250911 -1.1888 1.17866 -0.0 0.0 -0.0 9.62271 -3.98217 -18.6609 -17.8613 -33.2113 -57.0382 0.592312 16.3526 -0.0851039 70.8321 2.82716 8.01095 2.66719 -6.31139 -20.5255 0.0 0.0 0.0 -4.78155 -4.62353 8.15514 -15.0872 0.321796 2.28627 36.909 -17.9864 -4.98442 -29.1124 0.0 0.0 -0.0 0.0 -0.0 36.4807 -3.84239 -0.152094 -8.30324 -0.251777 -1.24831 4.47054 23.7017 0.761671 18.7074 -0.0 -0.0 0.0 0.0 0.0 
2849.28 665.888 -416.664 -171.585 -61.6438 -174.544 2.71584 0.178217 0.319094 2.71588 0.157551 0.329788 2.71679 0.101477 0.351119 2.71665 0.155656 0.330686 1.25359 -0.357115 -0.116643 1.25381 -0.533348 -0.159834 -0.0 0.0 -0.0 6.35093 -7.31458 12.1322 1.85588 -8.63902 60.9045 2.55262 -51.6535 1.23561 48.4665 -0.861229 -5.9491 0.247441 -0.864002 1.29145 -0.0 0.0 -0.0 10.0273 -2.11072 -19.5936 -15.4085 -34.7903 -57.2443 0.602303 16.6133 -0.0879387 71.6617 2.91459 8.07169 2.33616 -5.53703 -17.9371 0.0 0.0 0.0 -4.08914 -5.70998 7.04791 -20.2838 0.292157 3.08276 36.4529 -18.4341 -4.95678 -27.7713 0.0 0.0 -0.0 0.0 -0.0 37.3236 -4.81083 0.129689 -14.2569 -0.319834 -2.15889 10.4908 22.6277 1.72693 19.1744 -0.0 -0.0 0.0 0.0 0.0 
2869.64 666.031 -404.192 -171.622 -63.476 -174.582 2.49588 0.129178 0.47018 2.49599 0.0989982 0.477447 2.49681 0.0176851 0.487281 2.49649 0.0944193 0.478373 2.55357 -0.770629 -0.154491 2.55487 -1.21642 -0.229963 -0.0 0.0 -0.0 5.95745 -7.22142 11.3207 1.05518 -8.65483 61.877 2.55676 -51.6986 1.23886 48.3299 -0.851862 -5.93433 0.298382 -1.07415 1.54462 -0.0 0.0 -0.0 10.2643 -1.67101 -20.1044 -14.809 -35.3264 -57.702 0.597675 16.4926 -0.0866202 72.3938 2.99247 8.12424 2.19346 -4.53142 -16.5776 0.0 0.0 0.0 -4.50133 -6.47817 6.26065 -22.1499 0.263905 3.3677 36.2892 -18.2993 -4.93559 -27.1951 0.0 0.0 -0.0 0.0 -0.0 38.1822 -5.50379 1.37402 -18.9429 -0.306719 -2.87754 9.6419 23.1243 1.60104 18.3994 -0.0 -0.0 0.0 0.0 0.0 
2884.0 666.722 -396.885 -171.639 -64.1933 -174.687 2.27992 0.156588 0.411733 2.28001 0.130072 0.420862 2.28097 0.0561469 0.436911 2.28072 0.124444 0.422561 3.08841 -0.739475 0.0265523 3.09016 -1.31034 -0.0223292 -0.0 0.0 -0.0 5.76583 -7.8253 10.8973 -0.339946 -8.1947 62.937 2.54675 -51.5893 1.23101 48.551 -0.867041 -5.95822 0.305996 -0.91945 1.66029 -0.0 0.0 -0.0 10.1217 -1.3387 -19.8329 -14.4066 -35.9449 -58.4119 0.585773 16.1815 -0.0832721 72.6469 3.01955 8.14218 2.01036 -5.12186 -15.5426 0.0 0.0 0.0 -3.32147 -7.72668 6.40898 -25.2182 0.197326 3.83379 36.7962 -17.4852 -4.95513 -26.4403 0.0 0.0 -0.0 0.0 -0.0 38.3483 -5.54367 1.84668 -21.5035 -0.274743 -3.2691 11.3702 21.2852 1.83991 19.2198 -0.0 -0.0 0.0 0.0 0.0 
2900.84 666.553 -385.769 -170.666 -64.7566 -173.724 2.0127 0.193603 0.332239 2.01274 0.172069 0.343885 2.01379 0.108978 0.368766 2.01364 0.16585 0.346928 3.79849 -1.19957 -0.773729 3.80109 -1.4101 -0.946042 -0.0 0.0 -0.0 6.39134 -6.4417 12.2471 -1.41499 -8.56919 61.868 2.43051 -50.2805 1.14075 47.8135 -0.816764 -5.87831 0.32056 -2.1761 1.23178 -0.0 0.0 -0.0 10.1686 -0.612649 -19.9709 -12.4777 -38.2003 -57.9425 0.58609 16.1898 -0.0833606 72.9385 3.05085 8.16269 1.93189 -4.63061 -14.8216 0.0 0.0 0.0 -1.14191 -8.47278 6.00836 -27.4008 0.134812 4.1629 39.2694 -16.4653 -5.15003 -25.711 0.0 0.0 -0.0 0.0 -0.0 38.4053 -5.77759 2.21618 -23.5252 -0.237151 -3.57705 13.6121 22.2435 2.20141 19.7199 -0.0 -0.0 0.0 0.0 0.0 
2919.37 671.065 -376.57 -171.396 -64.7728 -174.578 1.56749 0.179626 0.285666 1.56752 0.161084 0.296517 1.56837 0.103993 0.321023 1.56826 0.153387 0.300571 4.13619 -1.14683 0.444051 4.14393 -2.36463 0.434307 -0.0 0.0 -0.0 5.42712 -6.45607 10.2622 -4.08141 -11.6281 63.3215 2.44897 -50.4934 1.15497 48.407 -0.857143 -5.94267 0.369056 -0.670271 2.18644 -0.0 0.0 -0.0 10.5192 3.50865 -20.8913 -9.72876 -36.469 -58.049 0.61017 16.8181 -0.0902014 73.2046 3.0795 8.18128 1.81462 -5.76858 -14.4524 0.0 0.0 0.0 0.421573 -7.86169 6.1263 -27.182 0.141645 4.13001 38.5202 -16.6208 -5.0872 -24.9587 0.0 0.0 -0.0 0.0 -0.0 37.044 -6.69714 2.60262 -23.9267 -0.228393 -3.63803 11.2979 21.5573 1.83362 18.7772 -0.0 -0.0 0.0 0.0 0.0 
2943.16 674.737 -366.545 -173.26 -63.6846 -176.55 1.45628 0.233071 0.323388 1.45631 0.212021 0.337564 1.45758 0.145825 0.370995 1.45745 0.202586 0.343309 4.40608 -0.996837 0.493884 4.41301 -2.14633 0.504139 -0.0 0.0 -0.0 4.68943 -5.12882 8.82386 -5.51434 -10.4862 65.6408 2.43636 -50.3482 1.14525 48.2884 -0.849021 -5.92984 0.564562 -1.25885 3.25196 -0.0 0.0 -0.0 10.7292 3.70114 -21.3473 -9.47908 -34.3216 -56.9703 0.601183 16.5841 -0.0876187 73.4266 3.10347 8.19668 1.77572 -5.29909 -14.0122 0.0 0.0 0.0 2.04509 -5.32896 5.67891 -28.3823 0.102619 4.31009 38.4518 -19.0169 -5.17095 -24.829 0.0 0.0 -0.0 0.0 -0.0 35.3239 -6.07693 2.3643 -25.1487 -0.19911 -3.82328 12.334 20.8136 1.97855 19.3856 -0.0 -0.0 0.0 0.0 0.0 
2971.37 680.32 -356.96 -172.394 -65.1618 -176.164 1.5712 0.306987 0.425584 1.57126 0.279284 0.444255 1.57347 0.193152 0.487908 1.57324 0.267783 0.451281 5.33772 -2.35132 -1.21748 5.34787 -2.9514 -1.50716 -0.0 0.0 -0.0 4.87455 -2.7188 9.31016 -9.42932 -15.5073 65.3769 2.10185 -46.1505 0.895526 47.1379 -0.771615 -5.80454 0.772511 -3.28296 3.80842 -0.0 0.0 -0.0 10.3669 4.16252 -20.5863 -6.65148 -36.951 -56.6569 0.647656 17.7879 -0.101351 73.9288 3.15791 8.23118 1.69573 -5.70509 -13.624 0.0 0.0 0.0 4.48248 -6.89447 6.84027 -31.3053 -0.00813774 4.74494 38.6795 -18.2365 -5.1614 -24.0256 0.0 0.0 -0.0 0.0 -0.0 33.3058 -6.18051 3.68286 -24.9464 -0.20423 -3.79266 14.4958 19.6881 2.27884 20.8675 -0.0 -0.0 0.0 0.0 0.0 
